<?xml version="1.0" encoding="utf-8"?>
<!-- Generator: Adobe Illustrator 24.0.2, SVG Export Plug-In . SVG Version: 6.00 Build 0)  -->
<svg version="1.1" id="Capa_1" xmlns="http://www.w3.org/2000/svg" xmlns:xlink="http://www.w3.org/1999/xlink" x="0px" y="0px"
	 viewBox="0 0 51.3 50" style="enable-background:new 0 0 51.3 50;" xml:space="preserve">
<g>
	<path d="M50.6,39c-0.2,0.4-0.3,0.8-0.5,1.3c-5.9-4.4-11.8-8.8-17.7-13.2c6-5.6,11.9-11.2,17.9-16.9c0.1,0.3,0.2,0.6,0.3,0.9
		C50.6,20.4,50.6,29.7,50.6,39z"/>
	<path d="M3.1,8.1C3.6,8.1,4.2,8,4.7,8c10.7,0,21.4,0,32,0c3.3,0,6.6,0,10,0c0.5,0,1,0.1,1.5,0.1c0,0.1,0,0.1,0.1,0.2
		c-0.1,0.1-0.3,0.2-0.4,0.3c-6.2,5.8-12.4,11.7-18.6,17.5c-2.1,2-5.1,2-7.2,0C15.8,20.3,9.5,14.4,3.3,8.5C3.2,8.4,3.1,8.4,3.1,8.3
		C3.1,8.2,3.1,8.2,3.1,8.1z"/>
	<path d="M48.3,41.8c-0.5,0.1-1,0.2-1.6,0.2c-7.1,0-14.2,0-21.3,0c-6.9,0-13.9,0-20.8,0c-0.6,0-1.2-0.1-1.7-0.2c0-0.1,0-0.1,0-0.2
		c5.8-4.4,11.7-8.7,17.5-13.1c3.5,2.5,6.9,2.5,10.4,0c5.8,4.3,11.7,8.7,17.5,13.1C48.3,41.7,48.3,41.8,48.3,41.8z"/>
	<path d="M18.8,27.1c-5.9,4.4-11.8,8.8-17.6,13.2c-0.4-0.7-0.6-1.4-0.6-2.1c0-5.9,0-11.7,0-17.6c0-2.9,0-5.8,0-8.6
		c0-0.5,0.1-1,0.2-1.6c0.1,0,0.1,0,0.2,0C6.9,15.9,12.9,21.5,18.8,27.1z"/>
</g>
</svg>
