<?xml version="1.0" encoding="utf-8"?>
<!-- Generator: Adobe Illustrator 24.0.2, SVG Export Plug-In . SVG Version: 6.00 Build 0)  -->
<svg version="1.1" id="Capa_1" xmlns="http://www.w3.org/2000/svg" xmlns:xlink="http://www.w3.org/1999/xlink" x="0px" y="0px"
	 viewBox="0 0 51.3 50" style="enable-background:new 0 0 51.3 50;" xml:space="preserve">
<path d="M47.8,12.8c-2.3-3.9-5.4-7-9.3-9.3C34.6,1.1,30.3,0,25.6,0C21,0,16.7,1.1,12.8,3.4c-3.9,2.3-7,5.4-9.3,9.3
	C1.1,16.7,0,21,0,25.6c0,5.6,1.6,10.6,4.9,15.1c3.3,4.5,7.5,7.5,12.6,9.3c0.6,0.1,1,0,1.3-0.2c0.3-0.3,0.4-0.6,0.4-1
	c0-0.1,0-0.7,0-1.8c0-1.1,0-2.1,0-3l-0.8,0.1c-0.5,0.1-1.1,0.1-1.9,0.1c-0.7,0-1.5-0.1-2.3-0.2c-0.8-0.1-1.5-0.5-2.2-1
	c-0.7-0.5-1.2-1.2-1.5-2.1l-0.3-0.8c-0.2-0.5-0.6-1.1-1.1-1.7c-0.5-0.6-1-1-1.5-1.3L7.5,37c-0.2-0.1-0.3-0.2-0.4-0.4
	c-0.1-0.2-0.2-0.3-0.3-0.5c-0.1-0.2,0-0.3,0.2-0.4c0.2-0.1,0.5-0.1,1-0.1l0.7,0.1c0.4,0.1,1,0.4,1.7,0.8c0.7,0.4,1.2,1,1.6,1.7
	c0.5,0.9,1.1,1.6,1.9,2.1c0.7,0.5,1.5,0.7,2.2,0.7c0.7,0,1.4-0.1,1.9-0.2c0.5-0.1,1-0.3,1.5-0.5c0.2-1.5,0.7-2.6,1.6-3.4
	c-1.3-0.1-2.4-0.3-3.4-0.6c-1-0.3-2.1-0.7-3.1-1.3c-1.1-0.6-2-1.3-2.7-2.2c-0.7-0.9-1.3-2.1-1.8-3.5c-0.5-1.4-0.7-3.1-0.7-5
	c0-2.7,0.9-5,2.6-6.9c-0.8-2-0.7-4.3,0.2-6.8c0.6-0.2,1.6-0.1,2.9,0.5c1.3,0.5,2.2,0.9,2.8,1.3c0.6,0.4,1.1,0.7,1.4,0.9
	c2.1-0.6,4.2-0.9,6.4-0.9s4.3,0.3,6.4,0.9l1.3-0.8c0.9-0.5,1.9-1,3.1-1.5c1.2-0.4,2.1-0.6,2.7-0.4c1,2.5,1.1,4.8,0.3,6.8
	c1.8,1.9,2.6,4.2,2.6,6.9c0,1.9-0.2,3.6-0.7,5c-0.5,1.5-1,2.6-1.8,3.5c-0.7,0.9-1.6,1.6-2.7,2.2c-1.1,0.6-2.1,1-3.1,1.3
	c-1,0.3-2.2,0.5-3.4,0.6c1.2,1,1.7,2.6,1.7,4.7v7c0,0.4,0.1,0.7,0.4,1c0.3,0.3,0.7,0.3,1.3,0.2c5.2-1.7,9.4-4.8,12.6-9.3
	c3.3-4.5,4.9-9.5,4.9-15.1C51.3,21,50.1,16.7,47.8,12.8z"/>
</svg>
