<?xml version="1.0" encoding="utf-8"?>
<!-- Generator: Adobe Illustrator 24.0.2, SVG Export Plug-In . SVG Version: 6.00 Build 0)  -->
<svg version="1.1" id="Layer_1" xmlns="http://www.w3.org/2000/svg" xmlns:xlink="http://www.w3.org/1999/xlink" x="0px" y="0px"
	 viewBox="0 0 50 73.4" style="enable-background:new 0 0 50 73.4;" xml:space="preserve">
<g>
	<path d="M23.3,0C39.5,0,50.8,11.7,50,26.1c-0.3,4.6-2.3,8.7-4.4,12.7c-4,7.3-9.1,13.8-14.2,20.3c-1.8,2.3-3.7,4.7-5.5,7.1
		c-0.6,0.7-0.9,0.9-1.5,0.1c-6-8-12.7-15.6-17.8-24.2c-1.8-3.1-3.5-6.3-4.8-9.7c-3-7.6-1.8-14.9,2.8-21.5C9.3,3.7,16.3,0.2,23.3,0z
		 M24.9,34.5c4.8,0,8.7-3.7,8.7-8.5c0-4.7-3.8-8.5-8.5-8.6c-4.8-0.1-8.7,3.8-8.7,8.5C16.4,30.7,20.2,34.5,24.9,34.5z"/>
	<path d="M25.1,73.4c-4.5-0.2-9-0.7-13.2-2.4c-1.4-0.6-2.9-1.4-4-2.4c-2.2-1.8-2.1-4.2,0-6.1c2.5-2.2,5.6-3.1,8.7-3.7
		c0.3-0.1,0.9,0.3,1.2,0.7c1.9,2.4,3.8,4.8,5.7,7.2c1.2,1.5,2.1,1.5,3.2,0c1.9-2.4,3.7-4.8,5.6-7.2c0.5-0.7,1.1-1,1.9-0.7
		c2,0.7,4,1.3,6,2.2c0.9,0.4,1.8,1.1,2.5,1.8c1.7,1.7,1.6,3.7,0,5.4c-2.3,2.3-5.3,3.3-8.3,3.9C31.2,72.7,28.1,73,25.1,73.4z"/>
</g>
</svg>
